<svg xmlns="http://www.w3.org/2000/svg" viewBox="0 0 309.23 259.08"><defs><style>.cls-1,.cls-3{fill:#fff;}.cls-2{fill:#231815;}.cls-3{stroke:#231815;stroke-linecap:round;stroke-linejoin:round;stroke-width:9px;}</style></defs><title>logo</title><g id="图层_2" data-name="图层 2"><g id="图层_1-2" data-name="图层 1"><g id="图层_2-2" data-name="图层 2"><g id="图层_1-2-2" data-name="图层 1-2"><path class="cls-1" d="M154.62,254.58c-45.9,0-78.47-13.92-97.71-25.6-22.19-13.47-39.55-32-46.44-49.55-14.45-36.86.31-71.76,15.25-94.56a4.49,4.49,0,0,0,.57-3.64c-2.84-10.47-4.8-29.71-4.66-45.74C21.84,12.3,26.05,5.54,27.51,5A10.19,10.19,0,0,1,31,4.5C48,4.5,85.61,28.8,91.77,35A4.48,4.48,0,0,0,95,36.28a4.59,4.59,0,0,0,1.21-.17c1.35-.37,2.92-.82,4.66-1.32,12.9-3.67,36.9-10.51,53.25-10.51h.51c16.93.15,41.75,7.13,55.09,10.88l3.41,1A4.47,4.47,0,0,0,217.47,35c6.15-6.17,43.7-30.46,60.81-30.46a10.27,10.27,0,0,1,3.45.5c1.44.54,5.64,7.3,5.85,30.49.14,16-1.81,35.26-4.64,45.75a4.43,4.43,0,0,0,.58,3.63c14.94,22.81,29.71,57.72,15.24,94.56C291.88,197,274.52,215.51,252.33,229,233.09,240.66,200.52,254.58,154.62,254.58Z"/><path class="cls-2" d="M278.27,0V9a10.19,10.19,0,0,1,1.1.06c1.35,2.38,3.88,10.87,3.69,30.13-.14,14.83-2,31.64-4.48,40.87a9,9,0,0,0,1.16,7.28c9.68,14.76,16,29.53,18.81,43.88a82.21,82.21,0,0,1-4,46.57c-6.53,16.67-23.2,34.37-44.58,47.34-18.75,11.38-50.51,25-95.37,25s-76.63-13.57-95.37-25c-21.38-13-38-30.67-44.59-47.34a82.36,82.36,0,0,1-4-46.58c2.81-14.34,9.14-29.1,18.81-43.87a9,9,0,0,0,1.16-7.29c-2.51-9.22-4.36-26-4.5-40.87C26,19.92,28.48,11.44,29.84,9.06A10.61,10.61,0,0,1,31,9C46.3,9,83.05,32.61,88.59,38.14a9,9,0,0,0,8.77,2.31l4.7-1.33c12.68-3.61,36.29-10.34,52-10.34h.47c16.33.14,40.78,7,53.91,10.71l3.43,1a9,9,0,0,0,8.77-2.31C226.18,32.6,262.91,9,278.27,9V0M30.2,8.54h0M278.28,0c-19.19,0-58,25.8-64,31.78-12-3.33-40.5-11.83-59.66-12h-.55c-19.15,0-47.23,8.7-59.12,12C89,25.84,50.16,0,31,0a14.6,14.6,0,0,0-5,.78c-12.48,4.62-9.7,60.63-4,81.63C3,111.41-7.46,146,6.28,181.08c13.34,34,66,78,148.34,78s135-44,148.33-78c13.74-35,3.33-69.67-15.67-98.67,5.67-21,8.45-77-4-81.63a14.58,14.58,0,0,0-5-.78Z"/><path class="cls-3" d="M202.7,174.67a24.37,24.37,0,0,1-21.83,18c-23.5,2.35-28-20.63-28.92-22.34-.76,1.35-5.42,24.69-28.92,22.34a24.37,24.37,0,0,1-21.83-18"/></g></g></g></g></svg>